<?xml version="1.0" encoding="utf-8"?>
<svg xmlns="http://www.w3.org/2000/svg" viewBox="0 0 28.993 28.993" shape-rendering="crispEdges">
  <path stroke="#ffffff" d="M 0 0.508 L 7 0.508 M 10 0.508 L 11 0.508 M 15 0.508 L 17 0.508 M 19 0.508 L 21 0.508 M 22 0.508 L 29 0.508 M 0 1.508 L 1 1.508 M 6 1.508 L 7 1.508 M 9 1.508 L 13 1.508 M 17 1.508 L 19 1.508 M 22 1.508 L 23 1.508 M 28 1.508 L 29 1.508 M 0 2.508 L 1 2.508 M 2 2.508 L 5 2.508 M 6 2.508 L 7 2.508 M 8 2.508 L 11 2.508 M 12 2.508 L 13 2.508 M 14 2.508 L 15 2.508 M 16 2.508 L 17 2.508 M 18 2.508 L 21 2.508 M 22 2.508 L 23 2.508 M 24 2.508 L 27 2.508 M 28 2.508 L 29 2.508 M 0 3.508 L 1 3.508 M 2 3.508 L 5 3.508 M 6 3.508 L 7 3.508 M 8 3.508 L 9 3.508 M 10 3.508 L 12 3.508 M 16 3.508 L 18 3.508 M 19 3.508 L 20 3.508 M 22 3.508 L 23 3.508 M 24 3.508 L 27 3.508 M 28 3.508 L 29 3.508 M 0 4.508 L 1 4.508 M 2 4.508 L 5 4.508 M 6 4.508 L 7 4.508 M 8 4.508 L 9 4.508 M 10 4.508 L 12 4.508 M 13 4.508 L 16 4.508 M 17 4.508 L 21 4.508 M 22 4.508 L 23 4.508 M 24 4.508 L 27 4.508 M 28 4.508 L 29 4.508 M 0 5.508 L 1 5.508 M 6 5.508 L 7 5.508 M 8 5.508 L 10 5.508 M 11 5.508 L 17 5.508 M 18 5.508 L 19 5.508 M 20 5.508 L 21 5.508 M 22 5.508 L 23 5.508 M 28 5.508 L 29 5.508 M 0 6.508 L 7 6.508 M 8 6.508 L 9 6.508 M 10 6.508 L 11 6.508 M 12 6.508 L 13 6.508 M 14 6.508 L 15 6.508 M 16 6.508 L 17 6.508 M 18 6.508 L 19 6.508 M 20 6.508 L 21 6.508 M 22 6.508 L 29 6.508 M 8 7.508 L 10 7.508 M 11 7.508 L 14 7.508 M 15 7.508 L 16 7.508 M 18 7.508 L 21 7.508 M 0 8.508 L 1 8.508 M 2 8.508 L 7 8.508 M 12 8.508 L 13 8.508 M 14 8.508 L 16 8.508 M 17 8.508 L 18 8.508 M 20 8.508 L 21 8.508 M 22 8.508 L 27 8.508 M 0 9.508 L 1 9.508 M 3 9.508 L 5 9.508 M 7 9.508 L 10 9.508 M 12 9.508 L 13 9.508 M 15 9.508 L 18 9.508 M 20 9.508 L 25 9.508 M 28 9.508 L 29 9.508 M 1 10.508 L 2 10.508 M 6 10.508 L 8 10.508 M 9 10.508 L 10 10.508 M 11 10.508 L 12 10.508 M 17 10.508 L 19 10.508 M 22 10.508 L 24 10.508 M 0 11.508 L 3 11.508 M 4 11.508 L 6 11.508 M 7 11.508 L 8 11.508 M 14 11.508 L 15 11.508 M 16 11.508 L 17 11.508 M 18 11.508 L 19 11.508 M 20 11.508 L 21 11.508 M 22 11.508 L 23 11.508 M 24 11.508 L 26 11.508 M 27 11.508 L 28 11.508 M 0 12.508 L 1 12.508 M 3 12.508 L 5 12.508 M 6 12.508 L 13 12.508 M 16 12.508 L 17 12.508 M 20 12.508 L 21 12.508 M 25 12.508 L 27 12.508 M 1 13.508 L 5 13.508 M 8 13.508 L 9 13.508 M 12 13.508 L 16 13.508 M 18 13.508 L 19 13.508 M 20 13.508 L 21 13.508 M 22 13.508 L 25 13.508 M 28 13.508 L 29 13.508 M 0 14.508 L 1 14.508 M 5 14.508 L 9 14.508 M 11 14.508 L 19 14.508 M 20 14.508 L 22 14.508 M 23 14.508 L 24 14.508 M 25 14.508 L 27 14.508 M 3 15.508 L 4 15.508 M 7 15.508 L 9 15.508 M 12 15.508 L 14 15.508 M 15 15.508 L 16 15.508 M 18 15.508 L 23 15.508 M 24 15.508 L 25 15.508 M 27 15.508 L 28 15.508 M 2 16.508 L 5 16.508 M 6 16.508 L 9 16.508 M 11 16.508 L 13 16.508 M 14 16.508 L 16 16.508 M 17 16.508 L 20 16.508 M 23 16.508 L 24 16.508 M 25 16.508 L 27 16.508 M 0 17.508 L 2 17.508 M 3 17.508 L 6 17.508 M 7 17.508 L 8 17.508 M 9 17.508 L 10 17.508 M 11 17.508 L 12 17.508 M 15 17.508 L 17 17.508 M 19 17.508 L 20 17.508 M 21 17.508 L 25 17.508 M 26 17.508 L 27 17.508 M 28 17.508 L 29 17.508 M 0 18.508 L 1 18.508 M 2 18.508 L 5 18.508 M 6 18.508 L 7 18.508 M 8 18.508 L 10 18.508 M 11 18.508 L 12 18.508 M 17 18.508 L 18 18.508 M 20 18.508 L 21 18.508 M 23 18.508 L 25 18.508 M 26 18.508 L 27 18.508 M 0 19.508 L 1 19.508 M 3 19.508 L 5 19.508 M 7 19.508 L 10 19.508 M 12 19.508 L 13 19.508 M 14 19.508 L 15 19.508 M 16 19.508 L 17 19.508 M 18 19.508 L 22 19.508 M 27 19.508 L 28 19.508 M 0 20.508 L 1 20.508 M 3 20.508 L 5 20.508 M 6 20.508 L 7 20.508 M 8 20.508 L 11 20.508 M 16 20.508 L 17 20.508 M 20 20.508 L 25 20.508 M 26 20.508 L 29 20.508 M 8 21.508 L 16 21.508 M 17 21.508 L 18 21.508 M 20 21.508 L 21 21.508 M 24 21.508 L 29 21.508 M 0 22.508 L 7 22.508 M 9 22.508 L 21 22.508 M 22 22.508 L 23 22.508 M 24 22.508 L 27 22.508 M 0 23.508 L 1 23.508 M 6 23.508 L 7 23.508 M 8 23.508 L 9 23.508 M 10 23.508 L 12 23.508 M 13 23.508 L 14 23.508 M 15 23.508 L 16 23.508 M 18 23.508 L 21 23.508 M 24 23.508 L 25 23.508 M 0 24.508 L 1 24.508 M 2 24.508 L 5 24.508 M 6 24.508 L 7 24.508 M 8 24.508 L 12 24.508 M 14 24.508 L 16 24.508 M 17 24.508 L 18 24.508 M 20 24.508 L 25 24.508 M 26 24.508 L 27 24.508 M 28 24.508 L 29 24.508 M 0 25.508 L 1 25.508 M 2 25.508 L 5 25.508 M 6 25.508 L 7 25.508 M 8 25.508 L 9 25.508 M 10 25.508 L 11 25.508 M 13 25.508 L 14 25.508 M 15 25.508 L 22 25.508 M 25 25.508 L 27 25.508 M 0 26.508 L 1 26.508 M 2 26.508 L 5 26.508 M 6 26.508 L 7 26.508 M 8 26.508 L 9 26.508 M 13 26.508 L 14 26.508 M 17 26.508 L 20 26.508 M 21 26.508 L 28 26.508 M 0 27.508 L 1 27.508 M 6 27.508 L 7 27.508 M 10 27.508 L 11 27.508 M 13 27.508 L 15 27.508 M 16 27.508 L 17 27.508 M 20 27.508 L 21 27.508 M 22 27.508 L 23 27.508 M 24 27.508 L 26 27.508 M 27 27.508 L 28 27.508 M 0 28.508 L 7 28.508 M 8 28.508 L 9 28.508 M 10 28.508 L 12 28.508 M 13 28.508 L 15 28.508 M 18 28.508 L 20 28.508 M 21 28.508 L 25 28.508 M 26 28.508 L 27 28.508"/>
</svg>